<svg width="18" height="20" viewBox="0 0 18 20" fill="none" xmlns="http://www.w3.org/2000/svg">
<path d="M8.9906 0C9.7946 0 10.4653 0.651768 10.4653 1.45577C10.4653 1.54333 10.4575 1.62909 10.4427 1.71239C13.2661 2.36243 15.3714 4.89144 15.3714 7.91218V9.67044L15.3706 9.8815C15.3649 11.2874 15.3577 13.0808 16.5625 13.6123C17.5503 14.0481 17.5475 15.234 17.5457 15.9804L17.5456 16.0701H0.454527L0.454381 15.9804C0.452597 15.234 0.449762 14.0481 1.43764 13.6123C2.64239 13.0808 2.63515 11.2874 2.62947 9.8815L2.62871 9.67044V7.91218C2.62871 4.89144 4.73402 2.36243 7.55738 1.71239C7.54256 1.62909 7.53483 1.54333 7.53483 1.45577C7.53483 0.651768 8.1866 0 8.9906 0Z" fill="#AFB3BB"/>
<path fill-rule="evenodd" clip-rule="evenodd" d="M5.46759 17.1666C5.86082 18.7519 7.29325 19.9269 9.00011 19.9269C10.707 19.9269 12.1394 18.7519 12.5326 17.1666H5.46759Z" fill="#AFB3BB"/>
</svg>
